<?xml version="1.0" encoding="UTF-8" standalone="no"?>
<svg
   width="100%"
   height="100%"
   viewBox="0 0 237 237"
   version="1.1"
   xml:space="preserve"
   style="fill-rule:evenodd;clip-rule:evenodd;stroke-linejoin:round;stroke-miterlimit:2;"
   id="svg194"
   sodipodi:docname="favicon.svg"
   inkscape:version="1.2.2 (b0a84865, 2022-12-01)"
   xmlns:inkscape="http://www.inkscape.org/namespaces/inkscape"
   xmlns:sodipodi="http://sodipodi.sourceforge.net/DTD/sodipodi-0.dtd"
   xmlns="http://www.w3.org/2000/svg"
   xmlns:svg="http://www.w3.org/2000/svg"><defs
   id="defs198" /><sodipodi:namedview
   id="namedview196"
   pagecolor="#ffffff"
   bordercolor="#000000"
   borderopacity="0.25"
   inkscape:showpageshadow="2"
   inkscape:pageopacity="0.0"
   inkscape:pagecheckerboard="0"
   inkscape:deskcolor="#d1d1d1"
   showgrid="false"
   inkscape:zoom="2.6663176"
   inkscape:cx="91.13693"
   inkscape:cy="154.89528"
   inkscape:window-width="1512"
   inkscape:window-height="916"
   inkscape:window-x="0"
   inkscape:window-y="38"
   inkscape:window-maximized="0"
   inkscape:current-layer="svg194" />
    <g
   transform="matrix(1.07972,0,0,1.10345,-9.41541,-13.6988)"
   id="g184"
   style="fill:#ffffff;fill-opacity:1">
        <path
   d="M11.934,197.581C9.86,192.421 8.72,186.804 8.72,180.927L8.72,57.975C8.72,32.829 29.584,12.414 55.283,12.414L180.938,12.414C206.636,12.414 227.5,32.829 227.5,57.975L227.5,180.927C227.5,186.804 226.361,192.421 224.287,197.581C224.182,197.579 224.078,197.578 223.973,197.578L12.248,197.578C12.143,197.578 12.038,197.579 11.934,197.581Z"
   style="fill:#ffffff;fill-opacity:1"
   id="path182" />
    </g>
    <g
   transform="matrix(3.2576781,0,0,3.2576781,-41.611608,-187.60797)"
   id="g190">
        <g
   transform="matrix(50,0,0,50,80.1995,105.127)"
   id="g186">
        </g>
        <text
   x="17.399"
   y="105.127"
   style="font-weight:700;font-size:50px;font-family:AmericanTypewriter-Bold, 'American Typewriter', serif;fill:#252525"
   id="text188">pT</text>
    </g>
    <path
   d="M232.751,204.323C225.407,222.992 207.209,236.22 185.946,236.22L50.274,236.22C29.011,236.22 10.814,222.992 3.47,204.323C3.583,204.321 3.696,204.32 3.809,204.32L232.412,204.32C232.525,204.32 232.638,204.321 232.751,204.323Z"
   style="fill:#7d42a9;fill-opacity:1"
   id="path192" />
</svg>
